<svg version="1.1" xmlns="http://www.w3.org/2000/svg" xmlns:xlink="http://www.w3.org/1999/xlink" width="666.000000pt" height="375.000000pt" viewBox="0,0,256,144.1375"><g fill="#900c3f" fill-rule="nonzero" stroke="none" stroke-width="1" stroke-linecap="butt" stroke-linejoin="miter" stroke-miterlimit="10" stroke-dasharray="" stroke-dashoffset="0" font-family="none" font-weight="none" font-size="none" text-anchor="none" style="mix-blend-mode: normal"><g transform="translate(-3.17102,-0.19552) scale(0.38438,0.38438)"><g transform="translate(0,375) scale(0.1,-0.1)"><path d="M2286,3654c-159,-218 -255,-482 -243,-668c10,-165 82,-273 231,-346c143,-71 305,-86 636,-60c171,14 348,8 426,-13c126,-35 227,-114 279,-217c47,-92 56,-161 65,-510c11,-401 27,-533 89,-740c47,-160 142,-342 228,-441c178,-205 399,-324 615,-331c43,-2 78,-5 78,-8c0,-3 -30,-57 -66,-120c-98,-169 -95,-162 -82,-177c6,-7 16,-13 23,-13c7,0 59,79 115,176l103,176l-31,44c-17,24 -64,92 -104,151c-78,117 -88,127 -102,113c-12,-12 5,-46 89,-175l65,-100l-66,-3c-194,-9 -440,123 -598,319c-112,140 -172,262 -225,456c-46,168 -61,313 -71,669c-10,357 -19,421 -76,540c-24,51 -50,87 -90,123c-66,61 -86,72 -191,107c-108,37 -294,43 -545,19c-205,-20 -312,-16 -430,14c-185,48 -280,137 -318,300c-40,169 66,479 243,712c35,47 42,79 18,79c-5,0 -34,-34 -65,-76z"></path></g></g></g></svg>