<svg version="1.1" xmlns="http://www.w3.org/2000/svg" xmlns:xlink="http://www.w3.org/1999/xlink" width="666.000000pt" height="375.000000pt" viewBox="0,0,256,144.1375"><g fill="#900c3d" fill-rule="nonzero" stroke="none" stroke-width="1" stroke-linecap="butt" stroke-linejoin="miter" stroke-miterlimit="10" stroke-dasharray="" stroke-dashoffset="0" font-family="none" font-weight="none" font-size="none" text-anchor="none" style="mix-blend-mode: normal"><g transform="translate(3.14801,-0.34225) scale(0.38438,0.38438)"><g transform="translate(0,375) scale(0.1,-0.1)"><path d="M4290,3707c0,-8 9,-22 20,-32c63,-57 192,-303 236,-450c38,-125 40,-272 5,-360c-34,-85 -117,-164 -210,-198c-157,-58 -279,-67 -545,-41c-235,24 -413,16 -527,-23c-95,-33 -171,-82 -223,-146c-43,-54 -59,-87 -84,-172c-28,-98 -31,-131 -42,-480c-5,-170 -16,-357 -24,-415c-48,-344 -177,-615 -377,-790c-153,-135 -287,-195 -474,-214c-33,-4 -66,-3 -72,2c-9,6 5,35 50,107c34,55 70,111 80,125c21,30 22,50 2,50c-8,0 -52,-55 -97,-121c-46,-67 -93,-136 -106,-154l-23,-33l95,-163c52,-90 100,-170 106,-176c15,-18 29,-16 37,4c7,17 -21,73 -104,210c-23,39 -43,76 -43,82c0,7 28,11 73,11c230,0 485,150 664,390c123,165 211,410 249,695c8,61 19,256 24,435c6,239 13,342 25,389c47,191 181,310 386,342c53,8 128,9 259,3c311,-15 534,-11 615,10c141,37 266,128 312,226c95,205 19,519 -200,827c-48,67 -87,94 -87,60z"></path></g></g></g></svg>